<svg width="295" height="46" viewBox="0 0 295 46" fill="none" xmlns="http://www.w3.org/2000/svg">
<path d="M14.443 33.0515L20.3596 38.8842L26.2762 33.0515L20.3596 27.2189L14.443 33.0515ZM20.3596 4.74504V4.75381C18.6662 4.75381 16.9728 5.39116 15.6827 6.66293L15.6768 6.65709C14.3896 7.92886 13.7431 9.60117 13.7431 11.2735C13.7431 12.9487 14.3867 14.6181 15.6708 15.884H15.6797L20.3596 20.4946L25.0366 15.884H25.0455C26.3385 14.6093 26.985 12.9399 26.985 11.2735H26.9761C26.9761 9.6041 26.3296 7.93471 25.0395 6.66293C23.7405 5.38531 22.0471 4.74504 20.3596 4.74504ZM29.6868 36.4137L22.0649 43.9274L20.3596 45.6085L18.6543 43.9274L11.0325 36.4137L3.41057 43.9274L0 40.5652L16.952 23.8568L12.2751 19.2462L12.281 19.2404C10.0419 17.0359 8.92383 14.1503 8.92383 11.2735C8.92383 8.39372 10.0419 5.51103 12.2751 3.30954V3.30369C14.5083 1.10221 17.4354 0 20.3596 0V0.00877086C23.2898 0.00877086 26.2199 1.10805 28.4471 3.30369C30.6803 5.50518 31.7954 8.39079 31.7954 11.2764H31.7865C31.7865 14.1591 30.6714 17.0418 28.4412 19.2433L28.4471 19.2491L23.7702 23.8568L40.7193 40.5652L37.3087 43.9274L29.6868 36.4137Z" fill="white"/>
<path d="M58.112 37.8042V13.9642H63.072V33.4842H73.152V37.8042H58.112ZM83.932 38.1882C82.204 38.1882 80.6253 37.7935 79.196 37.0042C77.788 36.2149 76.6573 35.1375 75.804 33.7722C74.972 32.3855 74.556 30.8175 74.556 29.0682C74.556 27.2975 74.972 25.7295 75.804 24.3642C76.6573 22.9989 77.788 21.9215 79.196 21.1322C80.6253 20.3429 82.204 19.9482 83.932 19.9482C85.66 19.9482 87.228 20.3429 88.636 21.1322C90.044 21.9215 91.164 22.9989 91.996 24.3642C92.8493 25.7295 93.276 27.2975 93.276 29.0682C93.276 30.8175 92.8493 32.3855 91.996 33.7722C91.164 35.1375 90.044 36.2149 88.636 37.0042C87.228 37.7935 85.66 38.1882 83.932 38.1882ZM83.932 33.8682C84.8067 33.8682 85.564 33.6655 86.204 33.2602C86.8653 32.8549 87.3773 32.2895 87.74 31.5642C88.124 30.8389 88.316 30.0069 88.316 29.0682C88.316 28.1295 88.124 27.3082 87.74 26.6042C87.3773 25.8789 86.8653 25.3135 86.204 24.9082C85.564 24.4815 84.8067 24.2682 83.932 24.2682C83.0573 24.2682 82.2893 24.4815 81.628 24.9082C80.9667 25.3135 80.444 25.8789 80.06 26.6042C79.6973 27.3082 79.516 28.1295 79.516 29.0682C79.516 30.0069 79.6973 30.8389 80.06 31.5642C80.444 32.2895 80.9667 32.8549 81.628 33.2602C82.2893 33.6655 83.0573 33.8682 83.932 33.8682ZM104.68 44.8442C103.336 44.8442 102.088 44.6202 100.936 44.1722C99.7838 43.7242 98.7918 43.0949 97.9598 42.2842C97.1491 41.4949 96.5624 40.5562 96.1998 39.4682L100.648 37.9002C100.882 38.7109 101.362 39.3509 102.088 39.8202C102.813 40.2895 103.677 40.5242 104.68 40.5242C105.469 40.5242 106.152 40.3749 106.728 40.0762C107.304 39.7989 107.741 39.3829 108.04 38.8282C108.36 38.2735 108.52 37.6229 108.52 36.8762V32.8762L109.448 34.0282C108.85 35.0095 108.082 35.7455 107.144 36.2362C106.205 36.7055 105.106 36.9402 103.848 36.9402C102.226 36.9402 100.776 36.5775 99.4958 35.8522C98.2158 35.1055 97.2131 34.0922 96.4878 32.8122C95.7624 31.5109 95.3997 30.0389 95.3997 28.3962C95.3997 26.7535 95.7624 25.3029 96.4878 24.0442C97.2131 22.7642 98.2051 21.7615 99.4638 21.0362C100.722 20.3109 102.152 19.9482 103.752 19.9482C105.01 19.9482 106.109 20.2042 107.048 20.7162C107.986 21.2069 108.786 21.9642 109.448 22.9882L108.84 24.1402V20.3322H113.32V36.8762C113.32 38.4122 112.946 39.7775 112.2 40.9722C111.453 42.1882 110.429 43.1375 109.128 43.8202C107.848 44.5029 106.365 44.8442 104.68 44.8442ZM104.52 32.5882C105.33 32.5882 106.034 32.4175 106.632 32.0762C107.229 31.7349 107.688 31.2549 108.008 30.6362C108.349 30.0175 108.52 29.2922 108.52 28.4602C108.52 27.6282 108.349 26.9029 108.008 26.2842C107.666 25.6442 107.197 25.1535 106.6 24.8122C106.002 24.4495 105.309 24.2682 104.52 24.2682C103.709 24.2682 102.984 24.4495 102.344 24.8122C101.725 25.1535 101.234 25.6442 100.872 26.2842C100.53 26.9029 100.36 27.6282 100.36 28.4602C100.36 29.2709 100.53 29.9855 100.872 30.6042C101.234 31.2229 101.725 31.7135 102.344 32.0762C102.984 32.4175 103.709 32.5882 104.52 32.5882ZM125.526 38.1882C123.798 38.1882 122.219 37.7935 120.79 37.0042C119.382 36.2149 118.251 35.1375 117.398 33.7722C116.566 32.3855 116.15 30.8175 116.15 29.0682C116.15 27.2975 116.566 25.7295 117.398 24.3642C118.251 22.9989 119.382 21.9215 120.79 21.1322C122.219 20.3429 123.798 19.9482 125.526 19.9482C127.254 19.9482 128.822 20.3429 130.23 21.1322C131.638 21.9215 132.758 22.9989 133.59 24.3642C134.443 25.7295 134.87 27.2975 134.87 29.0682C134.87 30.8175 134.443 32.3855 133.59 33.7722C132.758 35.1375 131.638 36.2149 130.23 37.0042C128.822 37.7935 127.254 38.1882 125.526 38.1882ZM125.526 33.8682C126.4 33.8682 127.158 33.6655 127.798 33.2602C128.459 32.8549 128.971 32.2895 129.334 31.5642C129.718 30.8389 129.91 30.0069 129.91 29.0682C129.91 28.1295 129.718 27.3082 129.334 26.6042C128.971 25.8789 128.459 25.3135 127.798 24.9082C127.158 24.4815 126.4 24.2682 125.526 24.2682C124.651 24.2682 123.883 24.4815 123.222 24.9082C122.56 25.3135 122.038 25.8789 121.654 26.6042C121.291 27.3082 121.11 28.1295 121.11 29.0682C121.11 30.0069 121.291 30.8389 121.654 31.5642C122.038 32.2895 122.56 32.8549 123.222 33.2602C123.883 33.6655 124.651 33.8682 125.526 33.8682ZM155.128 38.1882C153.421 38.1882 151.832 37.8789 150.36 37.2602C148.909 36.6415 147.64 35.7775 146.552 34.6682C145.464 33.5589 144.61 32.2575 143.992 30.7642C143.394 29.2709 143.096 27.6389 143.096 25.8682C143.096 24.0975 143.394 22.4655 143.992 20.9722C144.589 19.4575 145.432 18.1562 146.52 17.0682C147.608 15.9589 148.877 15.1055 150.328 14.5082C151.8 13.8895 153.4 13.5802 155.128 13.5802C156.856 13.5802 158.402 13.8682 159.767 14.4442C161.154 15.0202 162.328 15.7882 163.288 16.7482C164.248 17.7082 164.93 18.7749 165.336 19.9482L160.952 22.0602C160.546 20.9082 159.832 19.9589 158.808 19.2122C157.805 18.4442 156.578 18.0602 155.128 18.0602C153.72 18.0602 152.482 18.3909 151.416 19.0522C150.349 19.7135 149.517 20.6309 148.92 21.8042C148.344 22.9562 148.056 24.3109 148.056 25.8682C148.056 27.4255 148.344 28.7909 148.92 29.9642C149.517 31.1375 150.349 32.0549 151.416 32.7162C152.482 33.3775 153.72 33.7082 155.128 33.7082C156.578 33.7082 157.805 33.3349 158.808 32.5882C159.832 31.8202 160.546 30.8602 160.952 29.7082L165.336 31.8202C164.93 32.9935 164.248 34.0602 163.288 35.0202C162.328 35.9802 161.154 36.7482 159.767 37.3242C158.402 37.9002 156.856 38.1882 155.128 38.1882ZM176.526 38.1882C174.798 38.1882 173.219 37.7935 171.79 37.0042C170.382 36.2149 169.251 35.1375 168.398 33.7722C167.566 32.3855 167.15 30.8175 167.15 29.0682C167.15 27.2975 167.566 25.7295 168.398 24.3642C169.251 22.9989 170.382 21.9215 171.79 21.1322C173.219 20.3429 174.798 19.9482 176.526 19.9482C178.254 19.9482 179.822 20.3429 181.23 21.1322C182.638 21.9215 183.758 22.9989 184.59 24.3642C185.443 25.7295 185.87 27.2975 185.87 29.0682C185.87 30.8175 185.443 32.3855 184.59 33.7722C183.758 35.1375 182.638 36.2149 181.23 37.0042C179.822 37.7935 178.254 38.1882 176.526 38.1882ZM176.526 33.8682C177.4 33.8682 178.158 33.6655 178.798 33.2602C179.459 32.8549 179.971 32.2895 180.334 31.5642C180.718 30.8389 180.91 30.0069 180.91 29.0682C180.91 28.1295 180.718 27.3082 180.334 26.6042C179.971 25.8789 179.459 25.3135 178.798 24.9082C178.158 24.4815 177.4 24.2682 176.526 24.2682C175.651 24.2682 174.883 24.4815 174.222 24.9082C173.56 25.3135 173.038 25.8789 172.654 26.6042C172.291 27.3082 172.11 28.1295 172.11 29.0682C172.11 30.0069 172.291 30.8389 172.654 31.5642C173.038 32.2895 173.56 32.8549 174.222 33.2602C174.883 33.6655 175.651 33.8682 176.526 33.8682ZM188.698 37.8042V20.3322H193.178V24.5882L192.698 23.8842C192.954 22.5402 193.572 21.5482 194.554 20.9082C195.535 20.2682 196.708 19.9482 198.074 19.9482C199.524 19.9482 200.794 20.3215 201.882 21.0682C202.991 21.7935 203.684 22.7749 203.962 24.0122L202.586 24.1402C203.162 22.7109 203.983 21.6549 205.05 20.9722C206.116 20.2895 207.364 19.9482 208.794 19.9482C210.052 19.9482 211.162 20.2255 212.122 20.7802C213.103 21.3349 213.871 22.1135 214.426 23.1162C214.98 24.0975 215.258 25.2495 215.258 26.5722V37.8042H210.458V27.5962C210.458 26.9135 210.33 26.3269 210.074 25.8362C209.839 25.3455 209.498 24.9615 209.05 24.6842C208.602 24.4069 208.058 24.2682 207.418 24.2682C206.799 24.2682 206.255 24.4069 205.786 24.6842C205.338 24.9615 204.986 25.3455 204.73 25.8362C204.495 26.3269 204.378 26.9135 204.378 27.5962V37.8042H199.578V27.5962C199.578 26.9135 199.45 26.3269 199.194 25.8362C198.959 25.3455 198.618 24.9615 198.17 24.6842C197.722 24.4069 197.178 24.2682 196.538 24.2682C195.919 24.2682 195.375 24.4069 194.906 24.6842C194.458 24.9615 194.106 25.3455 193.85 25.8362C193.615 26.3269 193.498 26.9135 193.498 27.5962V37.8042H188.698ZM218.416 44.2042V20.3322H222.896V23.6602L222.48 22.7002C223.056 21.8255 223.835 21.1535 224.816 20.6842C225.819 20.1935 226.96 19.9482 228.24 19.9482C229.904 19.9482 231.408 20.3535 232.752 21.1642C234.096 21.9749 235.163 23.0735 235.952 24.4602C236.742 25.8255 237.136 27.3615 237.136 29.0682C237.136 30.7535 236.742 32.2895 235.952 33.6762C235.184 35.0629 234.128 36.1615 232.784 36.9722C231.44 37.7829 229.915 38.1882 228.208 38.1882C227.014 38.1882 225.904 37.9749 224.88 37.5482C223.878 37.1002 223.067 36.4495 222.448 35.5962L223.216 34.6042V44.2042H218.416ZM227.632 33.8682C228.528 33.8682 229.318 33.6655 230 33.2602C230.683 32.8549 231.216 32.2895 231.6 31.5642C231.984 30.8389 232.176 30.0069 232.176 29.0682C232.176 28.1295 231.984 27.3082 231.6 26.6042C231.216 25.8789 230.683 25.3135 230 24.9082C229.318 24.4815 228.528 24.2682 227.632 24.2682C226.779 24.2682 226.011 24.4709 225.328 24.8762C224.667 25.2815 224.144 25.8469 223.76 26.5722C223.398 27.2975 223.216 28.1295 223.216 29.0682C223.216 30.0069 223.398 30.8389 223.76 31.5642C224.144 32.2895 224.667 32.8549 225.328 33.2602C226.011 33.6655 226.779 33.8682 227.632 33.8682ZM245.356 38.1882C244.097 38.1882 243.009 37.9855 242.092 37.5802C241.174 37.1749 240.47 36.5989 239.98 35.8522C239.489 35.0842 239.243 34.1775 239.243 33.1322C239.243 32.1509 239.468 31.2869 239.916 30.5402C240.364 29.7722 241.046 29.1322 241.964 28.6202C242.902 28.1082 244.065 27.7455 245.452 27.5322L250.796 26.6682V30.1882L246.316 30.9882C245.633 31.1162 245.11 31.3402 244.748 31.6602C244.385 31.9589 244.204 32.3962 244.204 32.9722C244.204 33.5055 244.406 33.9215 244.812 34.2202C245.217 34.5189 245.718 34.6682 246.316 34.6682C247.105 34.6682 247.798 34.4975 248.396 34.1562C248.993 33.8149 249.452 33.3562 249.772 32.7802C250.113 32.1829 250.284 31.5322 250.284 30.8282V26.2842C250.284 25.6229 250.017 25.0682 249.484 24.6202C248.972 24.1722 248.268 23.9482 247.372 23.9482C246.518 23.9482 245.761 24.1829 245.1 24.6522C244.46 25.1215 243.99 25.7402 243.692 26.5082L239.852 24.6842C240.193 23.7029 240.737 22.8602 241.484 22.1562C242.23 21.4522 243.126 20.9082 244.172 20.5242C245.217 20.1402 246.358 19.9482 247.595 19.9482C249.068 19.9482 250.369 20.2149 251.5 20.7482C252.63 21.2815 253.505 22.0282 254.124 22.9882C254.764 23.9269 255.083 25.0255 255.083 26.2842V37.8042H250.604V34.9882L251.692 34.7962C251.18 35.5642 250.614 36.2042 249.996 36.7162C249.377 37.2069 248.684 37.5695 247.916 37.8042C247.148 38.0602 246.294 38.1882 245.356 38.1882ZM258.604 37.8042V20.3322H263.084V23.7882L262.828 23.0202C263.233 21.9749 263.884 21.2069 264.78 20.7162C265.697 20.2042 266.764 19.9482 267.98 19.9482C269.302 19.9482 270.454 20.2255 271.436 20.7802C272.438 21.3349 273.217 22.1135 273.772 23.1162C274.326 24.0975 274.604 25.2495 274.604 26.5722V37.8042H269.804V27.5962C269.804 26.9135 269.665 26.3269 269.388 25.8362C269.132 25.3455 268.758 24.9615 268.268 24.6842C267.798 24.4069 267.244 24.2682 266.604 24.2682C265.985 24.2682 265.43 24.4069 264.94 24.6842C264.449 24.9615 264.065 25.3455 263.788 25.8362C263.532 26.3269 263.404 26.9135 263.404 27.5962V37.8042H258.604ZM280.168 44.9082C279.656 44.9082 279.154 44.8655 278.664 44.7802C278.194 44.6949 277.778 44.5562 277.416 44.3642V40.4282C277.714 40.5135 278.066 40.5882 278.472 40.6522C278.877 40.7162 279.25 40.7482 279.592 40.7482C280.53 40.7482 281.202 40.5242 281.608 40.0762C282.013 39.6282 282.344 39.1162 282.6 38.5402L283.784 35.8202L283.72 39.8202L276.04 20.3322H281.192L286.28 34.1882H284.36L289.448 20.3322H294.6L287.112 39.4362C286.642 40.6522 286.066 41.6655 285.384 42.4762C284.701 43.2869 283.922 43.8949 283.048 44.3002C282.194 44.7055 281.234 44.9082 280.168 44.9082Z" fill="white"/>
</svg>
